<?xml version="1.0" encoding="utf-8"?>
<!-- Generator: Adobe Illustrator 16.0.3, SVG Export Plug-In . SVG Version: 6.00 Build 0)  -->
<!DOCTYPE svg PUBLIC "-//W3C//DTD SVG 1.1//EN" "http://www.w3.org/Graphics/SVG/1.1/DTD/svg11.dtd">
<svg version="1.1" id="Layer_1" xmlns="http://www.w3.org/2000/svg" xmlns:xlink="http://www.w3.org/1999/xlink" x="0px" y="0px"
	 width="100.012px" height="108.686px" viewBox="0 0 100.012 108.686" enable-background="new 0 0 100.012 108.686"
	 xml:space="preserve">
<g>
	<path fill="#FDFDFD" d="M174.065-23.5c-0.08,0-0.16,0-0.24,0C173.905-23.5,173.985-23.5,174.065-23.5z"/>
	<path fill="#FDFDFD" d="M168.286-21.431c0.453-0.218,0.957-0.367,1.348-0.665c1.629-1.244,3.334-1.021,5.09-0.368
		c0.334,0.124,0.689,0.189,1.033,0.282c1.928,1.134,3.631,2.489,4.843,4.43c1.329,2.133,2.737,4.216,3.483,6.65
		c0.818,2.674,1.455,5.353,1.121,8.207c-0.242,2.068-0.22,4.168-0.363,6.25c-0.115,1.656-0.217,3.323-0.487,4.959
		c-0.29,1.748-0.642,3.506-1.2,5.183c-0.752,2.258-2.463,3.984-4.16,5.474c-2.234,1.961-2.556,4.281-2.34,6.904
		c0.037,0.447,0.264,0.922,0.523,1.299c2.289,3.307,5.156,6.094,8.166,8.705c2.129,1.847,3.941,3.917,5.578,6.179
		c0.352,0.483,0.721,0.958,1.107,1.412c0.756,0.889,0.975,1.89,1.111,3.06c0.336,2.883,0.975,5.729,1.438,8.599
		c0.772,4.788,2.141,9.48,2.313,14.366c0.039,1.113,0.203,2.227,0.166,3.334c-0.018,0.509-0.284,1.087-0.611,1.492
		c-0.871,1.08-1.828,2.045-3.152,2.656c-3.506,1.618-6.922,3.435-10.449,4.996c-2.271,1.004-4.766,1.518-6.998,2.589
		c-1.745,0.837-3.282,0.771-4.984,0.157c-4.283-1.545-8.627-2.933-12.861-4.599c-2.76-1.087-5.406-2.488-8.033-3.879
		c-0.855-0.453-1.477-1.254-1.315-2.476c0.575-4.386,1.007-8.788,1.603-13.17c0.586-4.301,1.301-8.583,1.976-12.87
		c0.062-0.388,0.164-0.798,0.36-1.128c1.9-3.186,3.697-6.442,5.783-9.503c1.521-2.23,3.447-4.187,5.164-6.286
		c1.131-1.384,2.225-2.798,3.301-4.224c0.174-0.229,0.234-0.597,0.228-0.898c-0.028-1.314-0.155-2.629-0.14-3.943
		c0.013-1.108-0.557-1.875-1.221-2.642c-1.043-1.208-2.109-2.4-3.088-3.659c-1.307-1.678-1.854-3.704-2.195-5.738
		c-0.354-2.117-0.469-4.276-0.649-6.42c-0.267-3.136-0.646-6.273-0.685-9.414c-0.018-1.501,0.482-3.071,1.029-4.501
		c0.652-1.702,1.574-3.306,2.441-4.92c0.99-1.844,2.357-3.377,4.068-4.594c0.258-0.227,0.519-0.452,0.777-0.679
		C167.696-21.024,167.991-21.228,168.286-21.431z"/>
	<path fill="#FDFDFD" d="M152.286-0.763c-0.299,2.631-0.517,5.626-1.033,8.568c-0.194,1.107-0.982,2.167-1.678,3.119
		c-1.008,1.385-2.189,2.641-3.273,3.97c-1.895,2.325-1.77,4.543,0.271,6.799c2.436,2.691,4.85,5.406,7.209,8.166
		c0.955,1.116,1.739,2.379,2.607,3.571c0.419,0.575,0.463,1.087,0.043,1.74c-2.756,4.287-5.29,8.704-7.332,13.378
		c-0.385,0.879-0.307,1.954-0.467,2.937c-0.879,5.379-1.76,10.758-2.657,16.134c-0.208,1.248-0.688,1.465-1.903,1.223
		c-2.564-0.511-5.135-1.021-7.725-1.378c-2.146-0.297-4.018-1.206-5.82-2.279c-2.566-1.527-5.072-3.156-7.613-4.727
		c-0.599-0.369-0.744-0.863-0.627-1.521c0.498-2.78,1.004-5.56,1.461-8.345c0.555-3.374,1.146-6.743,1.57-10.135
		c0.297-2.39,0.896-4.52,2.547-6.415c2.721-3.129,5.26-6.42,7.817-9.688c0.804-1.025,1.556-2.139,2.067-3.325
		c0.287-0.666,0.158-1.59,0.002-2.354c-0.309-1.489-0.955-2.846-1.938-4.043c-0.86-1.046-1.591-2.199-2.466-3.231
		c-1.861-2.2-2.436-4.823-2.443-7.575c-0.013-3.954-0.059-7.923,0.258-11.858c0.25-3.097,1.227-6.049,3.42-8.468
		c1.892-2.089,4.035-3.766,6.851-4.269c0.786-0.141,1.806,0.108,2.501,0.535c4.555,2.786,7.654,6.553,7.869,12.183
		C151.893-5.736,152.105-3.427,152.286-0.763z"/>
	<path fill="#FDFDFD" d="M208.637,14.424c-1.291,1.329-1.199,3.071-0.984,4.625c0.137,0.983,0.984,2.037,1.797,2.728
		c3.024,2.567,5.176,5.866,7.692,8.855c0.819,0.975,1.198,2.111,1.405,3.373c0.728,4.395,1.551,8.772,2.314,13.16
		c0.488,2.801,0.946,5.606,1.391,8.414c0.039,0.245-0.039,0.597-0.199,0.771c-0.484,0.521-1.021,1-1.572,1.456
		c-0.456,0.377-1.047,0.62-1.43,1.056c-2.885,3.281-6.559,5.021-10.782,5.915c-2.149,0.455-4.203,1.364-6.31,2.041
		c-0.742,0.238-1.514,0.395-2.414,0.625c-0.51-2.072-1.043-3.98-1.442-5.916c-0.946-4.6-1.938-9.192-2.706-13.823
		c-0.631-3.804-2.378-6.974-4.781-9.876c-2.139-2.582-2.166-2.903-0.424-5.729c2.077-3.368,4.277-6.647,7.016-9.534
		c0.709-0.749,1.365-1.547,2.043-2.326c1.262-1.451,1.104-4.1-0.371-5.337c-2.508-2.104-4.178-4.844-5.543-7.713
		c-0.694-1.459-0.916-3.25-0.944-4.897c-0.078-4.512-0.085-9.036,0.172-13.539c0.134-2.335,1.207-4.455,3.246-5.887
		c1.302-0.914,2.608-1.817,3.92-2.719c1.925-1.323,3.774-1.066,5.812-0.061c3.18,1.569,4.877,4.322,6.531,7.221
		c0.584,1.021,0.534,2.097,0.766,3.146c1.191,5.384,1.213,10.766-0.186,16.119c-0.209,0.801-0.602,1.554-0.906,2.329
		C210.708,10.741,209.672,12.583,208.637,14.424z"/>
	<path fill="#FDFDFD" d="M208.637,14.424c1.035-1.841,2.07-3.683,3.107-5.523c0.387,0.976,0.424,1.911-0.281,2.78
		C210.629,12.707,209.897,13.836,208.637,14.424z"/>
	<path fill="#FDFDFD" d="M167.401-20.822c-0.259,0.227-0.518,0.452-0.777,0.679C166.883-20.369,167.142-20.595,167.401-20.822z"/>
</g>
<g>
	<path fill-rule="evenodd" clip-rule="evenodd" fill="#FFFFFF" d="M71.694,55.071c0-13.989,0.002-27.979-0.002-41.968
		c-0.002-3.506-1.265-5.754-3.92-6.746c-2.866-1.071-5.141-0.082-7.237,2.025c-13.856,13.92-27.767,27.786-41.653,41.675
		c-3.396,3.396-3.359,6.578,0.072,10.01c13.65,13.651,27.298,27.306,40.95,40.955c0.632,0.633,1.256,1.284,1.955,1.835
		c2.354,1.854,5.432,1.723,7.689-0.239c1.715-1.489,2.16-3.412,2.156-5.579C71.683,83.05,71.694,69.06,71.694,55.071z"/>
	<path fill-rule="evenodd" clip-rule="evenodd" fill="#FDFDFD" d="M71.694,55.071c0,13.989-0.011,27.979,0.011,41.968
		c0.004,2.167-0.441,4.09-2.156,5.579c-2.258,1.962-5.336,2.094-7.689,0.239c-0.699-0.551-1.323-1.202-1.955-1.835
		c-13.652-13.649-27.3-27.304-40.95-40.955c-3.431-3.432-3.468-6.614-0.072-10.01C32.768,36.168,46.678,22.302,60.535,8.383
		c2.097-2.107,4.371-3.097,7.237-2.025c2.655,0.992,3.918,3.24,3.92,6.746C71.696,27.092,71.694,41.082,71.694,55.071z"/>
</g>
</svg>
