<?xml version="1.0" encoding="utf-8"?>
<!-- Generator: Adobe Illustrator 16.0.0, SVG Export Plug-In . SVG Version: 6.00 Build 0)  -->
<!DOCTYPE svg PUBLIC "-//W3C//DTD SVG 1.1//EN" "http://www.w3.org/Graphics/SVG/1.1/DTD/svg11.dtd">
<svg version="1.1" id="Layer_1" xmlns="http://www.w3.org/2000/svg" xmlns:xlink="http://www.w3.org/1999/xlink" x="0px" y="0px"
	 width="71.879px" height="78.878px" viewBox="17 0 71.879 78.878" enable-background="new 17 0 71.879 78.878"
	 xml:space="preserve">
<g>
	<path d="M61.525,75.379c-11.062-0.021-21.406-4.314-29.129-12.084c-7.715-7.763-11.94-18.12-11.896-29.165
		C20.59,11.727,39.007-6.5,61.554-6.5c10.95,0.025,21.179,4.315,28.9,12.078c7.721,7.763,11.956,18.015,11.925,28.868
		c-0.066,22.571-18.354,40.933-40.769,40.933H61.525z M71.96,47.587c2.769,0,5.335,0.688,7.813,2.103
		c0.258-1.97,1.614-3.291,3.08-3.943c0.021-0.023,0.57-0.53,0.57-0.53c0.405-0.372,0.801-0.761,1.195-1.147
		c0.6-0.588,1.22-1.195,1.9-1.789c1.504-1.312,2.08-2.59,1.991-4.415c-0.17-3.49-3.563-6.663-6.503-7.328
		c-0.313-0.071-0.711-0.119-1.132-0.169c-0.646-0.078-1.378-0.166-2.159-0.369c-0.697-0.182-1.484-0.27-2.4-0.27
		c-1.073,0-2.201,0.117-3.396,0.241c-0.809,0.084-1.615,0.167-2.418,0.219c-1.388,0.089-2.983,0.72-4.674,1.389
		c-0.349,0.138-0.694,0.274-1.039,0.407c-1.577,0.605-2.822,1.251-3.81,1.973c-2.31,1.689-3.967,3.255-4.551,5.402
		c-0.382,1.404-0.16,2.459,0.769,3.641c1.287,1.641,3.25,2.52,5.521,3.537l0.948,0.429c1.127,0.515,2.492,0.745,4.423,0.745
		c0.851,0,1.701-0.04,2.547-0.078l0.619-0.027C71.494,47.592,71.729,47.587,71.96,47.587z M54.546,15.792
		c-2.218,0-4.485,0.426-6.934,1.301c-0.685,0.245-1.343,0.375-1.872,0.479c-0.296,0.058-0.743,0.146-0.88,0.208
		c-1.51,0.801-3.099,1.792-4.987,3.114c-1.317,0.922-2.216,2.026-2.747,3.375c-0.566,1.438-0.708,2.982-0.42,4.588
		c0.091,0.51,0.408,1.111,2.097,2.05c2.503,1.392,3.573,3.04,3.914,4.583c1.336-0.817,2.651-1.028,3.654-1.028
		c0.559,0,1.136,0.064,1.723,0.191c1.867-5.028,5.807-8.778,11.977-11.421c1.812-0.776,3.646-1.34,5.419-1.886
		c0.376-0.116,0.751-0.23,1.126-0.349c-0.029-0.047-0.059-0.093-0.088-0.136c-1.322-1.911-3.364-3.161-7.049-4.314
		C57.876,16.046,56.217,15.792,54.546,15.792z"/>
	<path fill="#ACACAC" d="M61.554-3c0.03,0,0.062,0,0.091,0c20.504,0.048,37.293,16.929,37.234,37.436
		c-0.06,20.667-16.766,37.443-37.269,37.443c-0.026,0-0.052,0-0.077,0C40.608,71.836,23.917,55.055,24,34.145
		C24.083,13.626,40.902-3,61.554-3 M38.195,45.313c0.242-0.304,0.468-0.623,0.729-0.91c1.505-1.655,3.056-3.272,4.517-4.967
		c0.856-0.994,1.811-1.474,2.93-1.474c0.422,0,0.867,0.068,1.34,0.202c0.65,0.184,1.354,0.234,2.04,0.234
		c0.109,0,0.219-0.002,0.327-0.004c0.26-0.006,0.675-0.394,0.74-0.67c1.365-5.819,5.5-9.078,10.63-11.275
		c2.555-1.094,5.289-1.764,7.927-2.671c1.464-0.504,1.684-0.948,1.184-2.426c-0.291-0.861-0.641-1.742-1.152-2.483
		c-2.157-3.116-5.424-4.58-8.881-5.662c-2.002-0.627-3.994-0.917-5.979-0.917c-2.722,0-5.426,0.544-8.111,1.505
		c-1.043,0.373-2.249,0.379-3.204,0.886c-1.858,0.985-3.639,2.136-5.365,3.344c-1.79,1.253-3.182,2.89-3.997,4.961
		c-0.828,2.104-0.999,4.304-0.608,6.487c0.388,2.172,2.004,3.471,3.842,4.492c1.609,0.895,2.805,1.973,1.956,4.059
		c-0.102,0.25-0.06,0.555-0.109,0.828c-0.366,2.077-0.738,4.152-1.108,6.229C37.959,45.159,38.077,45.236,38.195,45.313
		 M68.092,51.208c1.107,0,2.219-0.063,3.316-0.108c0.186-0.009,0.369-0.013,0.552-0.013c2.538,0,4.777,0.763,6.863,2.121
		c1.993,1.301,3.903,2.729,5.852,4.103c0.085-0.082,0.17-0.166,0.255-0.25c-0.029-0.188-0.043-0.383-0.094-0.564
		c-0.488-1.77-0.977-3.539-1.479-5.307c-0.283-0.996-0.168-1.763,0.92-2.246c0.563-0.252,1.047-0.721,1.514-1.149
		c1.023-0.942,1.979-1.963,3.028-2.877c2.202-1.919,3.336-4.187,3.188-7.224c-0.252-5.168-4.868-9.586-9.227-10.572
		c-1.045-0.237-2.146-0.242-3.181-0.511c-1.095-0.284-2.189-0.383-3.285-0.383c-2.021,0-4.039,0.338-6.037,0.467
		c-2.285,0.147-4.549,1.178-6.743,2.021c-1.615,0.621-3.231,1.399-4.621,2.416c-2.582,1.889-4.976,4.051-5.861,7.309
		c-0.663,2.436-0.247,4.633,1.393,6.72c2.044,2.604,4.959,3.702,7.767,4.987C64.094,51.005,66.087,51.208,68.092,51.208 M61.554-10
		L61.554-10C37.085-10,17.098,9.791,17,34.116c-0.048,11.979,4.538,23.22,12.914,31.646c8.383,8.435,19.607,13.092,31.604,13.116
		h0.093c24.339,0,44.198-19.928,44.269-44.423c0.033-11.789-4.563-22.921-12.943-31.347C84.556-5.318,73.447-9.972,61.661-10H61.554
		L61.554-10z M46.163,21.054c0.084-0.017,0.169-0.032,0.254-0.049c0.608-0.12,1.444-0.284,2.373-0.617
		c2.063-0.738,3.946-1.097,5.756-1.097c1.334,0,2.604,0.195,3.886,0.596c0.108,0.034,0.215,0.068,0.319,0.103
		c-0.021,0.008-0.04,0.017-0.06,0.025c-6.107,2.617-10.336,6.228-12.799,10.958c-0.457,0.02-0.945,0.07-1.458,0.165
		c-0.914-1.204-2.198-2.326-3.931-3.289c-0.181-0.1-0.322-0.185-0.433-0.255c-0.046-0.722,0.057-1.394,0.312-2.042
		c0.173-0.438,0.517-1.104,1.499-1.791C43.502,22.626,44.875,21.759,46.163,21.054L46.163,21.054z M59.755,40.541
		c0.004-0.044,0.017-0.13,0.054-0.264c0.271-1,1.211-2.014,3.24-3.498c0.723-0.529,1.731-1.045,2.997-1.53
		c0.355-0.137,0.713-0.278,1.071-0.42c1.363-0.539,2.772-1.097,3.609-1.15c0.896-0.058,1.739-0.146,2.557-0.229
		c1.101-0.114,2.141-0.222,3.033-0.222c0.614,0,1.112,0.052,1.522,0.158c1.007,0.262,1.901,0.37,2.62,0.456
		c0.285,0.034,0.641,0.077,0.773,0.107c1.599,0.362,3.697,2.356,3.781,4.086c0.029,0.582,0.043,0.875-0.795,1.604
		c-0.76,0.661-1.445,1.336-2.052,1.93c-0.369,0.36-0.737,0.725-1.117,1.074l-0.125,0.114c-0.026,0.024-0.054,0.05-0.08,0.074
		c-1.114,0.588-2.046,1.36-2.773,2.267c-1.972-0.672-4.015-1.011-6.112-1.011c-0.282,0-0.564,0.006-0.852,0.019l-0.629,0.027
		c-0.847,0.039-1.645,0.075-2.389,0.075c-1.404,0-2.32-0.133-2.971-0.431c-0.32-0.146-0.645-0.291-0.969-0.438
		c-2.138-0.958-3.483-1.592-4.201-2.506C59.834,40.688,59.778,40.589,59.755,40.541L59.755,40.541z"/>
</g>
<path fill="#FFFFFF" d="M84.675,57.311c-1.946-1.371-3.856-2.802-5.852-4.103c-2.235-1.457-4.647-2.228-7.415-2.108
	c-3.087,0.133-6.275,0.381-9.195-0.953c-2.808-1.285-5.723-2.385-7.767-4.987c-1.64-2.087-2.056-4.284-1.393-6.72
	c0.886-3.258,3.279-5.419,5.861-7.309c1.39-1.017,3.005-1.795,4.621-2.416c2.194-0.843,4.458-1.875,6.743-2.021
	c3.078-0.199,6.206-0.894,9.322-0.083c1.033,0.27,2.136,0.274,3.181,0.511c4.357,0.986,8.975,5.404,9.227,10.571
	c0.147,3.037-0.985,5.306-3.188,7.225c-1.05,0.914-2.005,1.936-3.028,2.877c-0.467,0.43-0.949,0.898-1.514,1.148
	c-1.088,0.484-1.203,1.25-0.92,2.248c0.502,1.767,0.989,3.535,1.479,5.306c0.051,0.183,0.063,0.377,0.094,0.565
	C84.845,57.145,84.76,57.229,84.675,57.311z"/>
<path fill="#FFFFFF" d="M37.841,45.082c0.37-2.076,0.742-4.15,1.108-6.229c0.049-0.274,0.007-0.58,0.109-0.83
	c0.849-2.084-0.347-3.163-1.956-4.058c-1.838-1.021-3.454-2.32-3.842-4.492c-0.391-2.183-0.22-4.383,0.608-6.487
	c0.815-2.071,2.207-3.708,3.997-4.961c1.726-1.208,3.507-2.359,5.365-3.344c0.955-0.506,2.161-0.513,3.204-0.886
	c4.644-1.661,9.338-2.078,14.09-0.589c3.457,1.083,6.724,2.546,8.881,5.662c0.513,0.741,0.861,1.622,1.152,2.483
	c0.5,1.478,0.28,1.922-1.184,2.426c-2.638,0.907-5.372,1.577-7.927,2.671c-5.13,2.198-9.265,5.456-10.63,11.275
	c-0.065,0.276-0.48,0.664-0.74,0.67c-0.789,0.018-1.613-0.019-2.367-0.23c-1.727-0.49-3.09-0.098-4.27,1.271
	c-1.461,1.693-3.012,3.312-4.517,4.967c-0.261,0.287-0.486,0.606-0.729,0.91C38.077,45.236,37.959,45.159,37.841,45.082z"/>
</svg>
