<?xml version="1.0" encoding="utf-8"?>
<!-- Generator: Adobe Illustrator 16.0.0, SVG Export Plug-In . SVG Version: 6.00 Build 0)  -->
<!DOCTYPE svg PUBLIC "-//W3C//DTD SVG 1.1//EN" "http://www.w3.org/Graphics/SVG/1.1/DTD/svg11.dtd">
<svg version="1.1" id="Layer_1" xmlns="http://www.w3.org/2000/svg" xmlns:xlink="http://www.w3.org/1999/xlink" x="0px" y="0px"
	 width="71.879px" height="78.879px" viewBox="17 0 71.879 78.879" enable-background="new 17 0 71.879 78.879"
	 xml:space="preserve">
<g>
	<path d="M61.413,75.378c-11.058-0.052-21.386-4.367-29.084-12.151c-7.697-7.78-11.898-18.153-11.828-29.208
		C20.641,11.677,39.054-6.5,61.546-6.5h0.219C72.617-6.444,82.834-2.125,90.535,5.659c7.701,7.784,11.904,18.049,11.843,28.9
		c-0.131,22.507-18.42,40.819-40.771,40.819H61.413z M62.578,38.446l1.521,0.101l0.963,1.184l0.226,0.268
		c0.246,0.289,0.553,0.648,0.846,1.089l0.367,0.543c0.544,0.802,1.106,1.632,1.61,2.584c0.252,0.478,0.517,0.953,0.779,1.431
		c0.936,1.686,1.899,3.429,2.543,5.424c0.485,1.509,0.643,3.067,0.473,4.645c1.856-0.711,3.459-2.021,4.842-3.956
		c1.29-1.805,1.922-4.052,2.047-7.288c0.02-0.479,0.014-0.962-0.01-1.445c-0.746,0.668-1.629,1.273-2.678,1.789l-5.609,2.761
		l0.58-6.226l0.032-0.406c0.022-0.334,0.05-0.713,0.137-1.146c0.104-0.524,0.219-1.05,0.335-1.576
		c0.176-0.799,0.341-1.554,0.462-2.292c0.832-5.076,0.084-9.538-2.288-13.639c-1.367-2.365-3.113-4.51-5.021-6.593
		c-0.07,1.102-0.188,2.22-0.356,3.357c-0.688,4.64-2.015,8.264-4.179,11.406c-0.541,0.785-1.142,1.43-1.722,2.054
		c-0.235,0.253-0.481,0.516-0.733,0.803l-5.783,6.576c0,0-0.344-8.786-0.345-8.804c-0.369,0.543-0.751,1.087-1.147,1.631
		c-3.254,4.472-4.517,9.064-3.86,14.036c0.359,2.73,1.71,4.771,4.25,6.426c0.662,0.433,1.361,0.829,2.08,1.2
		c0.004-1.387,0.304-2.817,0.91-4.245c1.031-2.427,2.247-4.744,3.424-6.984c0.491-0.938,0.984-1.877,1.462-2.821l1.038-2.052
		L62.578,38.446z"/>
	<path fill="#ACACAC" d="M61.546-3c0.066,0,0.133,0,0.2,0c20.505,0.106,37.25,17.036,37.132,37.538
		c-0.12,20.638-16.812,37.341-37.271,37.341c-0.061,0-0.118-0.001-0.179-0.001c-20.924-0.098-37.56-16.916-37.428-37.836
		C24.129,13.57,40.947-3,61.546-3 M55.116,31.004c-0.291-7.421-0.774-10.25-1.746-11.375c-0.588,1.572-1.06,3.361-1.901,4.954
		c-1.117,2.111-2.422,4.143-3.829,6.076c-3.61,4.964-5.315,10.37-4.501,16.552c0.522,3.958,2.621,6.825,5.812,8.902
		c1.958,1.274,4.131,2.26,6.295,3.167c1.155,0.485,2.496,0.528,4.099,0.839c-0.451-0.602-0.648-0.938-0.917-1.206
		c-2.149-2.164-2.468-4.793-1.355-7.41c1.396-3.283,3.174-6.403,4.788-9.596c0.162,0.01,0.326,0.019,0.488,0.028
		c0.293,0.36,0.616,0.701,0.873,1.088c0.619,0.927,1.276,1.838,1.797,2.821c1.094,2.067,2.377,4.091,3.086,6.292
		c0.809,2.508,0.225,5.059-1.17,7.387c0.213,0.09,0.35,0.168,0.496,0.203c0.231,0.057,0.472,0.112,0.707,0.115
		c0.053,0,0.104,0.001,0.155,0.001c4.834,0,8.554-2.212,11.303-6.055c1.937-2.707,2.569-5.881,2.697-9.188
		c0.136-3.494-0.7-6.817-1.549-10.148c-0.16-0.632-0.361-1.253-0.544-1.879c-0.139-0.032-0.276-0.063-0.415-0.095
		c-0.647,3.626-1.288,7.255-5.222,9.191c0.05-0.523,0.051-0.861,0.115-1.189c0.266-1.33,0.601-2.648,0.819-3.986
		c0.922-5.625,0.171-10.973-2.712-15.958c-2.2-3.805-5.178-6.976-8.219-10.092c-1.088-1.113-2.234-2.166-3.547-3.432
		c0,0.953-0.07,1.594,0.013,2.214c0.413,3.114,0.341,6.208-0.118,9.315c-0.528,3.565-1.54,6.943-3.6,9.933
		C56.729,29.327,55.955,30.05,55.116,31.004 M61.546-10L61.546-10c-24.41,0-44.393,19.737-44.545,43.998
		c-0.075,11.989,4.484,23.243,12.839,31.689c8.356,8.449,19.563,13.135,31.557,13.19l0.213,0.001c24.269,0,44.128-19.873,44.27-44.3
		c0.068-11.787-4.498-22.932-12.855-31.381C84.664-5.251,73.569-9.938,61.782-10H61.546L61.546-10z M61.084,34.85
		c0.624-0.672,1.327-1.433,1.998-2.406c1.653-2.401,2.898-5.105,3.77-8.187c1.852,3.313,2.42,6.949,1.738,11.104
		c-0.104,0.643-0.261,1.354-0.427,2.104c-0.029,0.136-0.06,0.271-0.088,0.405c-0.045-0.053-0.086-0.102-0.125-0.146
		c-0.058-0.066-0.115-0.135-0.171-0.203l-1.926-2.367l-3.047-0.2l-0.382-0.023l-0.149-0.009L61.084,34.85L61.084,34.85z
		 M50.245,47.146l2.468-2.809c-0.663,1.307-1.313,2.648-1.918,4.042C50.525,47.963,50.355,47.551,50.245,47.146L50.245,47.146z"/>
</g>
<path fill="#FFFFFF" d="M61.857,41.909c-1.613,3.19-3.392,6.313-4.787,9.596c-1.112,2.617-0.795,5.246,1.355,7.41
	c0.268,0.269,0.465,0.604,0.917,1.206c-1.604-0.311-2.944-0.354-4.099-0.839c-2.164-0.907-4.337-1.892-6.295-3.167
	c-3.19-2.077-5.289-4.944-5.812-8.902c-0.814-6.183,0.891-11.588,4.501-16.552c1.407-1.933,2.711-3.965,3.829-6.076
	c0.843-1.593,1.313-3.382,1.901-4.954c0.972,1.125,1.455,3.954,1.746,11.375c0.839-0.954,1.613-1.678,2.199-2.531
	c2.06-2.99,3.071-6.368,3.6-9.933c0.459-3.107,0.531-6.202,0.118-9.315c-0.083-0.62-0.013-1.261-0.013-2.214
	c1.313,1.266,2.459,2.318,3.547,3.432c3.041,3.116,6.019,6.287,8.219,10.092c2.883,4.985,3.634,10.333,2.712,15.958
	c-0.22,1.338-0.556,2.655-0.819,3.987c-0.064,0.326-0.065,0.666-0.115,1.188c3.934-1.935,4.573-5.563,5.222-9.191
	c0.139,0.032,0.276,0.063,0.415,0.095c0.183,0.626,0.384,1.247,0.544,1.879c0.849,3.331,1.685,6.653,1.549,10.149
	c-0.128,3.308-0.762,6.48-2.697,9.188c-2.778,3.884-6.549,6.102-11.458,6.054c-0.236-0.003-0.476-0.06-0.707-0.114
	c-0.146-0.035-0.283-0.114-0.496-0.205c1.395-2.327,1.979-4.877,1.17-7.385c-0.709-2.201-1.992-4.226-3.086-6.293
	c-0.521-0.982-1.178-1.896-1.797-2.822c-0.257-0.385-0.58-0.727-0.873-1.086C62.186,41.927,62.021,41.918,61.857,41.909z"/>
</svg>
