<?xml version="1.0" encoding="utf-8"?>
<!-- Generator: Adobe Illustrator 16.0.0, SVG Export Plug-In . SVG Version: 6.00 Build 0)  -->
<!DOCTYPE svg PUBLIC "-//W3C//DTD SVG 1.1//EN" "http://www.w3.org/Graphics/SVG/1.1/DTD/svg11.dtd">
<svg version="1.1" id="Layer_1" xmlns="http://www.w3.org/2000/svg" xmlns:xlink="http://www.w3.org/1999/xlink" x="0px" y="0px"
	 width="71.963px" height="78.917px" viewBox="17 0 71.963 78.917" enable-background="new 17 0 71.963 78.917"
	 xml:space="preserve">
<g>
	<path d="M61.146,75.417c-10.838,0-21.066-4.326-28.804-12.184c-7.803-7.922-12.007-18.374-11.837-29.43
		C20.846,11.581,39.244-6.5,61.519-6.5c0.254,0,0.508,0.002,0.765,0.007c22.387,0.412,40.411,19.031,40.178,41.504
		c-0.231,22.281-18.622,40.406-40.995,40.406H61.146z M38.989,40.085c1.26,2.646,2.779,4.979,4.2,7.017
		c1.823,2.614,4.539,3.006,5.994,3.006c1.057,0,2.119-0.188,3.161-0.558c0.398-0.141,0.923-0.475,1.479-0.828
		c0.16-0.104,0.326-0.208,0.498-0.314c-0.192-1.043-0.375-2.029-0.658-2.885c-0.082-0.248-0.161-0.498-0.24-0.748
		c-0.424-1.348-0.719-2.189-1.227-2.549c-1.95-1.377-3.34-1.938-4.799-1.938l-0.791,0.004c-1.453,0-2.896-0.055-4.292-0.106
		c-0.963-0.036-1.926-0.073-2.889-0.091C39.28,40.091,39.135,40.087,38.989,40.085z M70.651,42.085
		c1.75,0.162,3.417,0.301,5.063,0.301h0.252c1.268-0.012,2.273-0.404,3.075-1.202c1.269-1.263,1.904-3.112,2.495-5.058
		c0.747-2.459,1.386-5.043,2.001-7.554c-1.719,0.487-3.371,0.979-4.984,1.571c-1.68,0.616-3.558,1.388-4.743,2.437
		C71.262,34.835,70.274,37.744,70.651,42.085z M55.526,10.166c-1.598,2.544-3.244,5.171-4.795,7.774
		c-0.562,0.941-1.175,2.51-0.022,5.247c0.667,1.587,2.103,2.895,3.769,4.319c1.377,1.175,1.859,1.197,1.864,1.197
		c0.003,0,0.455-0.053,1.661-1.219c0.246-0.238,0.483-0.487,0.709-0.745c1.136-1.293,2.016-2.37,2.171-3.505
		c0.479-3.482-0.127-6.064-1.966-8.369C57.704,13.344,56.592,11.75,55.526,10.166z"/>
	<path fill="#ADADAD" d="M61.517-3c0.234,0,0.467,0.002,0.701,0.006c20.141,0.371,36.959,17.155,36.744,37.969
		C98.75,55.263,82.019,71.917,61.466,71.917c-0.002,0-0.003,0-0.005,0c-0.104,0-0.21,0-0.313,0
		c-20.414,0-37.464-17.111-37.144-38.06C24.312,13.857,40.837-2.999,61.517-3 M56.341,32.203c1.305,0,2.572-0.731,4.094-2.203
		c0.315-0.305,0.619-0.623,0.908-0.953c1.377-1.567,2.71-3.179,3.008-5.336c0.553-4.021-0.044-7.702-2.698-11.029
		c-2.248-2.817-4.139-5.92-6.264-9.009c-0.159,0.299-0.275,0.551-0.421,0.784c-2.418,3.895-4.896,7.753-7.244,11.69
		c-1.61,2.704-1.424,5.588-0.242,8.396c0.984,2.339,2.832,4.008,4.722,5.622C53.791,31.521,55.083,32.203,56.341,32.203
		 M88.114,23.801c-0.59,0.091-0.943,0.106-1.272,0.203c-3.173,0.926-6.396,1.719-9.494,2.854c-2.064,0.757-4.245,1.674-5.857,3.102
		c-4.461,3.948-4.933,9.213-4.033,14.735c0.044,0.275,0.509,0.662,0.805,0.688c2.48,0.218,4.97,0.506,7.452,0.506
		c0.096,0,0.189,0,0.284-0.002c2.046-0.018,3.962-0.678,5.513-2.223c1.837-1.828,2.661-4.172,3.374-6.519
		c1.042-3.431,1.843-6.936,2.712-10.417C87.823,25.822,87.926,24.886,88.114,23.801 M72.827,61.3c0.445,0,0.877-0.184,1.188-0.606
		c1.123-1.532,2.031-3.222,3.1-4.958c-3.963-1.063-7.033-2.994-9.508-6.203c-3.086-4.006-5.598-8.232-7.158-13.029
		c-0.182-0.555-0.319-1.141-0.609-1.635c-0.144-0.246-0.642-0.546-0.824-0.546c-0.021,0-0.037,0.004-0.05,0.013
		c-0.319,0.235-0.688,0.672-0.687,1.032c0.009,2.981,0.596,5.83,1.717,8.631c1.683,4.201,3.208,8.473,6.344,11.862
		c1.616,1.747,3.393,3.356,5.188,4.925C71.897,61.108,72.37,61.3,72.827,61.3 M49.183,53.608c1.448,0,2.918-0.258,4.33-0.758
		c1.353-0.479,2.504-1.498,3.816-2.12c0.77-0.363,0.848-0.846,0.709-1.518c-0.333-1.603-0.542-3.246-1.053-4.789
		c-0.605-1.832-1.043-3.836-2.771-5.057c-2.045-1.443-4.194-2.58-6.817-2.58c-0.041,0-0.082,0-0.123,0.002
		c-0.224,0.002-0.445,0.004-0.668,0.004c-2.371,0-4.743-0.154-7.115-0.199c-0.7-0.014-1.399-0.018-2.107-0.018
		c-1.132,0-2.285,0.01-3.489,0.01c1.409,4.767,3.765,8.705,6.421,12.517C42.455,52.169,45.759,53.608,49.183,53.608 M61.521-10
		h-0.004C37.343-9.999,17.375,9.627,17.005,33.75c-0.185,12,4.376,23.343,12.841,31.938c8.401,8.53,19.518,13.229,31.3,13.229
		l0.314-0.002l0,0c24.289,0,44.249-19.678,44.5-43.867C106.213,10.66,86.647-9.545,62.346-9.993C62.07-9.998,61.795-10,61.521-10
		L61.521-10z M56.164,24.337c-1.033-0.904-1.917-1.767-2.228-2.506c-0.601-1.425-0.339-1.863-0.197-2.1
		c0.646-1.084,1.312-2.177,1.982-3.267c0.151,0.195,0.305,0.39,0.459,0.584c0.891,1.114,1.654,2.572,1.242,5.652
		C57.267,23.066,56.528,23.92,56.164,24.337L56.164,24.337z M74.19,38.847c0.281-1.87,1.067-2.875,1.938-3.645
		c0.541-0.479,1.554-0.954,2.416-1.307c-0.116,0.407-0.235,0.812-0.358,1.215c-0.532,1.756-0.989,2.971-1.613,3.592
		c-0.09,0.09-0.182,0.18-0.635,0.184l-0.225,0.002C75.216,38.888,74.708,38.873,74.19,38.847L74.19,38.847z M49.183,46.608
		c-1.376,0-2.426-0.507-3.123-1.507c-0.303-0.434-0.604-0.875-0.904-1.324c0.479,0.01,0.964,0.016,1.451,0.016
		c0.254,0,0.508,0,0.761-0.004c0,0,0,0,0.001,0c0.449,0,1.061,0.127,2.372,0.996c0.107,0.291,0.239,0.711,0.345,1.043
		c0.07,0.223,0.141,0.445,0.213,0.666C49.921,46.569,49.545,46.608,49.183,46.608L49.183,46.608z"/>
</g>
<g>
	<path fill="#FFFFFF" d="M55.39,3.673c2.125,3.089,4.016,6.191,6.264,9.009c2.653,3.327,3.251,7.008,2.697,11.029
		c-0.297,2.157-1.63,3.769-3.007,5.336c-0.289,0.33-0.593,0.648-0.907,0.953c-2.992,2.894-5.004,2.924-8.231,0.167
		c-1.89-1.614-3.737-3.283-4.722-5.622c-1.182-2.809-1.369-5.692,0.242-8.396c2.348-3.938,4.825-7.796,7.244-11.69
		C55.114,4.224,55.229,3.972,55.39,3.673z"/>
</g>
<g>
	<path fill="#FFFFFF" d="M88.114,23.801c-0.188,1.084-0.291,2.021-0.519,2.927c-0.87,3.481-1.67,6.986-2.712,10.417
		c-0.713,2.347-1.536,4.688-3.374,6.519c-1.551,1.545-3.467,2.205-5.513,2.223c-2.578,0.023-5.161-0.278-7.736-0.504
		c-0.296-0.024-0.761-0.412-0.805-0.688c-0.899-5.521-0.428-10.787,4.033-14.735c1.613-1.428,3.793-2.345,5.857-3.102
		c3.098-1.135,6.321-1.928,9.494-2.854C87.171,23.908,87.524,23.892,88.114,23.801z"/>
</g>
<g>
	<path fill="#FFFFFF" d="M33.896,36.587c1.957,0,3.776-0.027,5.596,0.006c2.595,0.05,5.189,0.23,7.782,0.195
		c2.681-0.037,4.864,1.111,6.941,2.578c1.728,1.221,2.164,3.225,2.771,5.057c0.511,1.543,0.72,3.188,1.053,4.789
		c0.139,0.672,0.062,1.152-0.709,1.518c-1.313,0.622-2.465,1.643-3.816,2.12c-4.747,1.683-10.153,0.618-13.195-3.747
		C37.661,45.292,35.305,41.353,33.896,36.587z"/>
</g>
<g>
	<path fill="#FFFFFF" d="M77.114,55.736c-1.067,1.736-1.977,3.426-3.1,4.958c-0.629,0.856-1.754,0.731-2.488,0.089
		c-1.795-1.566-3.57-3.177-5.188-4.924c-3.136-3.391-4.661-7.662-6.344-11.863c-1.121-2.799-1.708-5.648-1.717-8.631
		c-0.001-0.357,0.367-0.795,0.687-1.031c0.112-0.083,0.713,0.259,0.874,0.533c0.29,0.495,0.428,1.082,0.609,1.634
		c1.562,4.799,4.072,9.024,7.158,13.029C70.081,52.742,73.149,54.671,77.114,55.736z"/>
</g>
</svg>
