<?xml version="1.0" encoding="utf-8"?>
<!-- Generator: Adobe Illustrator 16.0.0, SVG Export Plug-In . SVG Version: 6.00 Build 0)  -->
<!DOCTYPE svg PUBLIC "-//W3C//DTD SVG 1.1//EN" "http://www.w3.org/Graphics/SVG/1.1/DTD/svg11.dtd">
<svg version="1.1" id="Layer_3" xmlns="http://www.w3.org/2000/svg" xmlns:xlink="http://www.w3.org/1999/xlink" x="0px" y="0px"
	 width="70.973px" height="78.783px" viewBox="17.876 0 70.973 78.783" enable-background="new 17.876 0 70.973 78.783"
	 xml:space="preserve">
<g>
	<path d="M61.935,75.283c-10.939-0.027-21.168-4.273-28.803-11.961c-7.629-7.68-11.803-17.924-11.756-28.846
		C21.471,12.328,39.684-5.691,61.974-5.691h0.114c10.732,0.03,20.847,4.276,28.479,11.956c7.633,7.68,11.815,17.82,11.781,28.553
		c-0.072,22.313-18.158,40.465-40.317,40.465H61.935z"/>
	<path fill="#ACACAC" d="M61.974-2.191c0.035,0,0.068,0,0.104,0c20.256,0.057,36.836,16.739,36.771,36.997
		C98.783,55.218,82.28,71.783,62.032,71.783c-0.031,0-0.058,0-0.089,0c-20.672-0.051-37.155-16.634-37.066-37.292
		C24.964,14.228,41.583-2.189,61.974-2.191 M49.102,32.631c-1.506-3.148-2.633-6.193-4.467-9.142
		c-0.321,0.546-0.509,0.795-0.626,1.074c-1.059,2.51-2.132,5.014-3.145,7.543c-0.802,2.003-0.999,2.19-3.17,2.198
		c-1.232,0.004-2.464,0.005-3.708,0.005c-1.776,0-3.576-0.002-5.434-0.002c0,0.894,0.014,1.669-0.004,2.442
		c-0.018,0.894,0.286,1.379,1.279,1.379c0.009,0,0.018,0,0.027,0c1.92-0.018,3.842-0.025,5.763-0.025
		c1.95,0,3.901,0.008,5.852,0.023c0.013,0,0.023,0,0.034,0c0.767,0,1.182-0.229,1.436-1.006c0.532-1.631,1.177-3.227,1.865-5.075
		c1.603,3.769,3.1,7.288,4.597,10.808c0.174,0.004,0.348,0.006,0.523,0.009c1.983-6.131,3.97-12.26,5.952-18.388
		c2.82,12.674,4.9,25.431,7.784,38.021c0.162,0.004,0.326,0.006,0.488,0.008c2.103-10.102,4.207-20.203,6.381-30.646
		c1.428,4.395,2.745,8.443,4.062,12.49c0.146,0,0.29-0.002,0.436-0.002c1.229-3.615,2.458-7.232,3.688-10.85
		c0.866,1.435,1.424,2.898,2.063,4.325c0.165,0.368,0.583,0.883,0.894,0.887c2.268,0.031,4.534,0.051,6.803,0.051
		c1.999,0,3.996-0.016,5.994-0.053c0.529-0.011,1.395-0.576,1.496-1.023c0.229-0.993,0.071-2.073,0.071-3.136
		c-2.04,0-4.028-0.007-5.992-0.007c-1.705,0-3.392,0.005-5.078,0.026c-0.025,0-0.052,0-0.077,0c-0.798,0-1.342-0.164-1.704-0.97
		c-1.199-2.659-2.455-5.294-3.695-7.936c-0.206-0.438-0.455-0.856-0.806-1.515c-1.241,3.067-2.374,5.867-3.509,8.667
		c-0.153-0.012-0.309-0.025-0.463-0.039c-1.509-4.734-3.017-9.467-4.523-14.2c-0.121,0.005-0.241,0.011-0.36,0.017
		c-1.929,8.346-3.856,16.693-5.786,25.039c-0.083-0.004-0.167-0.006-0.251-0.01c-2.46-12.125-4.92-24.25-7.38-36.375
		C54.05,15.692,52.006,24.162,49.102,32.631 M61.974-9.191L61.974-9.191C37.761-9.189,17.98,10.393,17.877,34.46
		c-0.051,11.859,4.485,22.985,12.772,31.329c8.294,8.351,19.401,12.965,31.276,12.994h0.106c24.082,0,43.738-19.718,43.817-43.954
		c0.037-11.667-4.508-22.688-12.8-31.031C84.758-4.545,73.766-9.158,62.099-9.191H61.974L61.974-9.191z"/>
</g>
<path fill="#FFFFFF" d="M70.356,18.202c1.546,4.855,3.093,9.71,4.641,14.566c0.158,0.014,0.317,0.027,0.475,0.04
	c1.163-2.872,2.325-5.744,3.6-8.89c0.359,0.675,0.615,1.104,0.826,1.554c1.272,2.709,2.561,5.413,3.791,8.14
	c0.385,0.854,0.967,1.005,1.828,0.994c3.723-0.046,7.445-0.02,11.354-0.02c0,1.089,0.162,2.199-0.072,3.216
	c-0.104,0.459-0.991,1.039-1.535,1.05c-4.375,0.084-8.753,0.063-13.127,0.002c-0.317-0.004-0.748-0.53-0.916-0.907
	c-0.655-1.465-1.229-2.966-2.116-4.438c-1.262,3.709-2.521,7.421-3.783,11.13c-0.148,0.001-0.298,0.002-0.446,0.002
	c-1.351-4.151-2.701-8.306-4.167-12.813c-2.229,10.712-4.388,21.075-6.545,31.437c-0.167-0.002-0.335-0.004-0.501-0.008
	c-2.958-12.914-5.092-26-7.984-39.001c-2.034,6.287-4.071,12.574-6.106,18.861c-0.18-0.002-0.358-0.004-0.537-0.008
	c-1.535-3.609-3.071-7.221-4.714-11.086c-0.706,1.896-1.366,3.532-1.913,5.205c-0.265,0.809-0.7,1.04-1.507,1.033
	c-3.973-0.032-7.943-0.034-11.914,0c-1.041,0.01-1.358-0.488-1.34-1.413c0.017-0.794,0.004-1.589,0.004-2.506
	c3.236,0,6.308,0.008,9.377-0.003c2.228-0.009,2.43-0.2,3.252-2.255c1.039-2.594,2.14-5.163,3.226-7.738
	c0.12-0.286,0.313-0.541,0.643-1.102c1.881,3.024,3.038,6.148,4.582,9.377c2.979-8.688,5.074-17.376,7.497-26.04
	c2.522,12.438,5.047,24.875,7.57,37.312c0.086,0.004,0.172,0.007,0.258,0.011c1.979-8.561,3.957-17.123,5.936-25.684
	C70.109,18.214,70.232,18.208,70.356,18.202z"/>
</svg>
