<?xml version="1.0" encoding="utf-8"?>
<!-- Generator: Adobe Illustrator 16.0.0, SVG Export Plug-In . SVG Version: 6.00 Build 0)  -->
<!DOCTYPE svg PUBLIC "-//W3C//DTD SVG 1.1//EN" "http://www.w3.org/Graphics/SVG/1.1/DTD/svg11.dtd">
<svg version="1.1" id="Layer_1" xmlns="http://www.w3.org/2000/svg" xmlns:xlink="http://www.w3.org/1999/xlink" x="0px" y="0px"
	 width="71.879px" height="78.882px" viewBox="27 0 71.879 78.882" enable-background="new 27 0 71.879 78.882"
	 xml:space="preserve">
<g>
	<path d="M71.605,75.382c-22.604,0-41.044-18.377-41.105-40.964c-0.03-10.905,4.223-21.17,11.977-28.903
		C50.223-2.212,60.528-6.479,71.495-6.5c22.551,0,40.858,18.299,40.884,40.791c0.025,22.617-18.23,41.05-40.697,41.091H71.605z
		 M71.564,13.829c-1.791,3.173-3.641,6.454-5.554,9.651l-0.36,0.602c-2.492,4.164-4.849,8.096-6.301,12.455
		c-1.022,3.066-1.209,5.871-0.567,8.573c1.427,6.021,6.967,10.388,13.173,10.39h0.001c2.627,0,5.125-0.82,7.224-2.371
		c4.588-3.393,6.431-7.84,5.631-13.598c-0.528-3.83-2.401-7.393-4.274-10.714c-1.829-3.243-3.758-6.521-5.622-9.69
		c-0.913-1.553-1.827-3.106-2.734-4.663c-0.164-0.283-0.328-0.565-0.492-0.849C71.646,13.686,71.604,13.757,71.564,13.829z"/>
	<path fill="#ACACAC" d="M71.569-3c20.464,0,37.286,16.806,37.31,37.295c0.023,20.69-16.664,37.55-37.203,37.587
		c-0.022,0-0.047,0-0.068,0C50.76,71.882,34.057,55.246,34,34.408C33.943,13.805,50.751-2.961,71.502-3C71.523-3,71.547-3,71.569-3
		 M71.955,59c3.224,0,6.469-0.961,9.305-3.058c5.621-4.153,7.988-9.897,7.019-16.894c-0.603-4.354-2.576-8.197-4.693-11.951
		c-2.729-4.836-5.586-9.6-8.381-14.396c-1.142-1.957-2.267-3.922-3.5-6.061c-0.328,0.506-0.537,0.795-0.715,1.104
		c-2.654,4.648-5.232,9.346-7.98,13.939c-2.646,4.424-5.33,8.801-6.979,13.744c-1.159,3.474-1.499,6.929-0.653,10.49
		C57.275,53.934,64.555,59,71.955,59 M71.57-10L71.57-10h-0.078C59.591-9.978,48.41-5.348,40.005,3.037
		C31.586,11.434,26.968,22.582,27,34.428c0.032,11.945,4.673,23.128,13.066,31.49c8.391,8.36,19.592,12.965,31.54,12.965h0.08
		c24.396-0.045,44.221-20.049,44.192-44.595C115.852,9.867,95.975-10,71.57-10L71.57-10z M71.955,52
		c-3.947,0-8.57-2.645-9.768-7.694c-0.494-2.08-0.341-4.196,0.481-6.66c1.333-3.996,3.592-7.77,5.984-11.764l0.36-0.604
		c0.924-1.542,1.829-3.1,2.721-4.653c0.054,0.092,0.106,0.184,0.162,0.276c1.855,3.157,3.775,6.42,5.591,9.637
		c1.707,3.026,3.411,6.251,3.855,9.47c0.624,4.498-0.686,7.675-4.243,10.306C75.586,51.432,73.855,52,71.955,52L71.955,52z"/>
</g>
<path fill="#FFFFFF" d="M71.703,6.641c1.234,2.139,2.359,4.104,3.5,6.061c2.795,4.797,5.652,9.561,8.381,14.396
	c2.117,3.754,4.092,7.599,4.693,11.952c0.971,6.994-1.396,12.738-7.019,16.893c-9.346,6.908-23.155,1.482-25.883-10.023
	c-0.846-3.563-0.506-7.018,0.653-10.489c1.647-4.944,4.332-9.321,6.979-13.745c2.748-4.594,5.326-9.291,7.98-13.939
	C71.166,7.436,71.375,7.146,71.703,6.641z"/>
</svg>
