<?xml version="1.0" encoding="utf-8"?>
<!-- Generator: Adobe Illustrator 16.0.0, SVG Export Plug-In . SVG Version: 6.00 Build 0)  -->
<!DOCTYPE svg PUBLIC "-//W3C//DTD SVG 1.1//EN" "http://www.w3.org/Graphics/SVG/1.1/DTD/svg11.dtd">
<svg version="1.1" xmlns="http://www.w3.org/2000/svg" xmlns:xlink="http://www.w3.org/1999/xlink" x="0px" y="0px"
	 width="100.291px" height="100.279px" viewBox="0 0 100.291 100.279" enable-background="new 0 0 100.291 100.279"
	 xml:space="preserve">
<g id="Layer_1">
</g>
<g id="Layer_2">
	<path fill-rule="evenodd" clip-rule="evenodd" d="M75.673,0c3.481,0,6.964,0,10.445,0c0.429,1.757,0.858,3.514,1.313,5.377
		c0.84,0,1.904,0.015,2.968-0.002c3.693-0.062,4.722,0.284,4.581,3.982c-0.021,0.541-0.003,1.083-0.003,1.624
		c0,0.873,0,1.745,0,2.717c1.239,0,2.317-0.023,3.395,0.007c1.12,0.031,1.884,0.757,1.896,1.881c0.028,2.823,0.03,5.646-0.01,8.469
		c-0.019,1.291-0.577,1.836-1.917,1.994c-1.095,0.128-2.196,0.191-3.269,0.281c0,2.633,0,5.165,0,7.767
		c0.864,0,1.634-0.007,2.403,0.001c1.788,0.019,2.799,1.046,2.803,2.849c0.004,2.398,0.002,4.796,0,7.193
		c-0.001,1.32-0.691,2.168-2.003,2.34c-1.058,0.139-2.129,0.181-3.227,0.268c0,2.523,0,4.977,0,7.557
		c1.031,0,1.988-0.018,2.945,0.004c1.373,0.03,2.254,0.874,2.273,2.278c0.037,2.59,0.026,5.182,0.004,7.772
		c-0.01,1.11-1.011,2.207-2.134,2.34c-1.019,0.121-2.048,0.161-3.07,0.236c0,2.55,0,5.003,0,7.574c1.122,0,2.159-0.02,3.195,0.005
		c1.313,0.032,2.007,0.753,2.013,2.091c0.012,2.63,0.008,5.26,0.001,7.89c-0.003,1.319-0.79,2.231-2.138,2.398
		c-1.02,0.127-2.051,0.161-3.151,0.242c0,0.46,0.002,0.84-0.001,1.22c-0.01,1.431,0.017,2.863-0.049,4.291
		c-0.029,0.639-0.114,1.353-1.075,1.333c-1.966-0.04-3.934-0.015-5.897-0.095c-0.676-0.028-0.897,0.149-0.882,0.811
		c0.03,1.313,0.037,2.63-0.006,3.943c-0.039,1.211-0.519,1.635-1.721,1.636c-2.785,0.003-5.569,0.002-8.354,0.001
		c-1.596,0-2.528-0.935-2.535-2.549c-0.006-1.22-0.002-2.439-0.002-3.672c-2.595,0-5.045,0-7.572,0c0,1.492,0.021,2.878-0.006,4.264
		c-0.024,1.229-0.783,1.956-1.979,1.957c-2.668,0.001-5.337,0.002-8.005,0c-1.525-0.002-2.625-1.125-2.627-2.683
		c-0.002-1.181,0-2.361,0-3.506c-2.61,0-5.063,0-7.574,0c0,1.479,0.003,2.866-0.001,4.254c-0.004,1.433-0.499,1.933-1.913,1.934
		c-2.785,0.003-5.569,0.002-8.354,0.001c-1.538-0.001-2.334-0.769-2.353-2.293c-0.016-1.298-0.003-2.596-0.003-3.917
		c-2.669,0-5.197,0-7.809,0c0,1.397,0.007,2.706-0.002,4.014c-0.008,1.036-1.143,2.193-2.15,2.194c-2.823,0.006-5.646,0.006-8.47,0
		c-1.247-0.002-1.96-0.703-1.977-1.973c-0.019-1.415-0.004-2.83-0.004-4.293c-0.993,0-1.835,0.004-2.678-0.001
		c-0.851-0.005-1.702-0.005-2.552-0.031c-1.535-0.048-1.972-0.321-2.175-1.822c-0.22-1.629-0.23-3.286-0.334-4.978
		C3.963,86.778,1.735,87.763,0,86.118c0-3.56,0-7.119,0-10.678c0.789-0.966,1.844-1.045,2.988-0.97
		c0.985,0.066,1.979,0.014,2.972,0.014c0-2.596,0-5.043,0-7.479c-2.032-0.49-4.36,0.737-5.96-1.314c0-3.327,0-6.654,0-9.982
		c0.139-0.12,0.374-0.221,0.401-0.362c0.206-1.073,0.958-1.113,1.829-1.083c1.253,0.043,2.508,0.011,3.719,0.011
		c0-2.608,0-5.053,0-7.574c-1.32,0-2.55-0.044-3.775,0.015C1.319,46.759,0.588,46.605,0,45.96c0-3.559,0-7.119,0-10.678
		c0.588-1.199,1.615-1.305,2.794-1.214c1.059,0.082,2.129,0.017,3.148,0.017c0-2.694,0-5.221,0-7.828
		c-1.181,0-2.27-0.092-3.335,0.025C1.438,26.411,0.583,26.089,0,25.069c0-3.482,0-6.964,0-10.446
		c0.452-0.958,1.27-1.023,2.196-0.982c1.256,0.056,2.517,0.014,3.842,0.014c0-0.451-0.002-0.756,0-1.06
		c0.019-1.699,0.034-3.398,0.059-5.097C6.11,6.603,6.441,6.127,7.42,5.803c1.744-0.577,3.458-0.388,5.192-0.269
		c0.747,0.052,1.116-0.128,1.058-0.919c-0.022-0.307,0.028-0.622-0.011-0.926C13.445,2.021,13.783,0.646,15.553,0
		c3.172,0,6.345,0,9.517,0c1.217,1.597,1.235,3.48,1.16,5.38c2.667,0,5.212,0,7.749,0c0.388-1.902-0.415-3.807,0.84-5.38
		c3.559,0,7.119,0,10.678,0c1.557,1.44,0.949,3.417,1.259,5.316c2.483,0,4.95,0,7.536,0c0-0.931-0.157-1.771,0.043-2.515
		c0.21-0.785,0.66-1.568,1.201-2.179C55.869,0.247,56.568,0.196,57.103,0c2.708,0,5.417,0,8.125,0
		c2.009,1.272,1.506,3.392,1.671,5.264c2.571,0,5.042,0,7.573,0C74.533,3.366,74.116,1.441,75.673,0z M50.241,54.915
		c2.501,0.198,4.72-1.395,4.801-3.613c0.117-3.2-1.264-5.097-4.427-5.354c-2.112-0.172-4.707,1.29-4.942,3.698
		C45.394,52.504,47.314,55.117,50.241,54.915z M74.494,70.839c-0.033-2.476-1.878-4.751-3.944-4.573
		c-2.748,0.235-4.781,1.807-4.839,4.201c-0.062,2.57,2.104,4.528,4.67,4.527C72.272,74.992,74.864,73.216,74.494,70.839z
		 M34.355,70.344c0.352-2.139-1.72-4.229-4.685-4.155c-2.204,0.055-3.889,1.949-3.887,4.449c0.001,2.63,1.58,4.297,4.233,4.231
		C32.68,74.803,34.254,73.453,34.355,70.344z M75.007,30.528c-0.024-3.109-1.987-4.834-4.928-4.858
		c-1.944-0.017-3.425,2.158-3.39,4.875c0.03,2.357,1.622,3.857,4.13,3.827C73.303,34.341,75.215,32.96,75.007,30.528z
		 M30.381,34.219c1.335,0.332,2.342-0.125,2.864-1.52c0.039-0.103,0.14-0.183,0.217-0.269c1.632-1.831,1.305-4.32-0.787-5.484
		c-0.681-0.378-1.479-0.567-2.243-0.771c-1.345-0.359-3.239,0.43-3.948,1.631c-0.782,1.324-0.879,2.818-0.178,4.086
		C27.115,33.354,28.304,34.604,30.381,34.219z"/>
</g>
</svg>
