<?xml version="1.0" encoding="utf-8"?>
<!-- Generator: Adobe Illustrator 16.0.0, SVG Export Plug-In . SVG Version: 6.00 Build 0)  -->
<!DOCTYPE svg PUBLIC "-//W3C//DTD SVG 1.1//EN" "http://www.w3.org/Graphics/SVG/1.1/DTD/svg11.dtd">
<svg version="1.1" id="Layer_1" xmlns="http://www.w3.org/2000/svg" xmlns:xlink="http://www.w3.org/1999/xlink" x="0px" y="0px"
	 width="100.013px" height="108.685px" viewBox="0 0 100.013 108.685" enable-background="new 0 0 100.013 108.685"
	 xml:space="preserve">
<g>
	<path fill-rule="evenodd" clip-rule="evenodd" fill="#FDFDFD" d="M51.815,0c-0.08,0-0.16,0-0.24,0C51.655,0,51.735,0,51.815,0z"/>
	<path fill-rule="evenodd" clip-rule="evenodd" fill="#FDFDFD" d="M46.035,2.069c0.453-0.218,0.957-0.367,1.348-0.665
		c1.63-1.244,3.335-1.021,5.09-0.368c0.334,0.124,0.689,0.189,1.034,0.282c1.927,1.134,3.631,2.489,4.842,4.43
		c1.329,2.133,2.737,4.216,3.483,6.65c0.819,2.674,1.455,5.353,1.121,8.207c-0.242,2.069-0.219,4.168-0.363,6.25
		c-0.115,1.657-0.217,3.324-0.487,4.959c-0.29,1.748-0.642,3.506-1.2,5.183c-0.752,2.258-2.463,3.984-4.16,5.474
		c-2.234,1.96-2.556,4.281-2.34,6.904c0.037,0.447,0.264,0.922,0.524,1.299c2.288,3.306,5.155,6.093,8.166,8.705
		c2.128,1.846,3.94,3.917,5.578,6.178c0.351,0.484,0.72,0.958,1.106,1.413c0.756,0.888,0.976,1.889,1.112,3.059
		c0.336,2.883,0.975,5.729,1.438,8.599c0.772,4.788,2.141,9.48,2.313,14.366c0.039,1.113,0.203,2.227,0.165,3.334
		c-0.018,0.509-0.284,1.087-0.611,1.492c-0.872,1.08-1.829,2.045-3.153,2.656c-3.506,1.619-6.921,3.435-10.449,4.996
		c-2.271,1.004-4.766,1.518-6.997,2.589c-1.746,0.837-3.283,0.771-4.985,0.158c-4.283-1.545-8.627-2.933-12.861-4.599
		c-2.761-1.087-5.407-2.488-8.034-3.879c-0.855-0.453-1.476-1.254-1.315-2.476c0.575-4.385,1.007-8.788,1.603-13.169
		c0.585-4.301,1.301-8.583,1.975-12.871c0.061-0.387,0.164-0.797,0.361-1.128c1.9-3.185,3.697-6.442,5.783-9.502
		c1.521-2.231,3.446-4.187,5.163-6.287c1.131-1.383,2.226-2.797,3.302-4.223c0.173-0.229,0.233-0.597,0.227-0.899
		c-0.028-1.314-0.156-2.629-0.14-3.943c0.013-1.108-0.556-1.875-1.22-2.642c-1.044-1.208-2.109-2.4-3.089-3.659
		c-1.306-1.678-1.853-3.704-2.194-5.738c-0.355-2.117-0.469-4.276-0.65-6.42c-0.267-3.136-0.646-6.273-0.684-9.414
		c-0.019-1.501,0.481-3.071,1.029-4.501c0.652-1.702,1.574-3.306,2.441-4.92c0.99-1.844,2.357-3.377,4.068-4.594
		c0.259-0.226,0.519-0.452,0.777-0.678C45.446,2.476,45.741,2.272,46.035,2.069z"/>
	<path fill-rule="evenodd" clip-rule="evenodd" fill="#FDFDFD" d="M30.035,22.737c-0.298,2.631-0.516,5.626-1.033,8.568
		c-0.194,1.108-0.982,2.167-1.677,3.12c-1.008,1.384-2.189,2.64-3.273,3.969c-1.896,2.326-1.77,4.543,0.27,6.799
		c2.436,2.692,4.85,5.406,7.21,8.166c0.955,1.116,1.739,2.379,2.607,3.571c0.419,0.576,0.463,1.087,0.043,1.741
		c-2.756,4.287-5.29,8.704-7.332,13.378c-0.384,0.879-0.307,1.954-0.467,2.936c-0.879,5.379-1.759,10.758-2.657,16.134
		c-0.208,1.248-0.689,1.465-1.904,1.223c-2.564-0.511-5.134-1.021-7.723-1.378c-2.147-0.297-4.018-1.206-5.821-2.28
		c-2.566-1.527-5.072-3.156-7.614-4.726c-0.598-0.369-0.744-0.863-0.626-1.521c0.498-2.78,1.003-5.559,1.461-8.344
		c0.555-3.374,1.146-6.744,1.569-10.135c0.298-2.39,0.898-4.52,2.547-6.415c2.722-3.129,5.26-6.42,7.818-9.689
		c0.803-1.025,1.556-2.138,2.067-3.325c0.288-0.666,0.159-1.59,0.002-2.353c-0.308-1.49-0.954-2.846-1.938-4.043
		c-0.86-1.046-1.59-2.2-2.465-3.232c-1.863-2.2-2.436-4.823-2.444-7.575c-0.013-3.954-0.059-7.923,0.258-11.858
		C9.162,12.371,10.14,9.419,12.332,7c1.892-2.089,4.036-3.766,6.851-4.269c0.786-0.14,1.806,0.109,2.501,0.535
		c4.555,2.787,7.654,6.553,7.87,12.183C29.643,17.764,29.855,20.073,30.035,22.737z"/>
	<path fill-rule="evenodd" clip-rule="evenodd" fill="#FDFDFD" d="M86.388,37.924c-1.292,1.329-1.2,3.071-0.985,4.625
		c0.137,0.983,0.985,2.037,1.797,2.727c3.024,2.568,5.176,5.866,7.692,8.856c0.819,0.974,1.198,2.111,1.406,3.373
		c0.727,4.394,1.55,8.772,2.314,13.16c0.488,2.801,0.946,5.606,1.391,8.414c0.039,0.245-0.039,0.597-0.2,0.771
		c-0.485,0.521-1.021,1-1.572,1.456c-0.456,0.377-1.047,0.621-1.43,1.056c-2.885,3.281-6.558,5.022-10.782,5.915
		c-2.15,0.455-4.203,1.364-6.31,2.041c-0.742,0.238-1.513,0.395-2.413,0.625c-0.511-2.072-1.044-3.98-1.443-5.916
		c-0.947-4.599-1.939-9.192-2.706-13.823c-0.631-3.804-2.378-6.974-4.781-9.876c-2.139-2.582-2.166-2.903-0.424-5.729
		c2.077-3.368,4.278-6.647,7.015-9.534c0.71-0.749,1.366-1.547,2.043-2.326c1.263-1.451,1.105-4.1-0.37-5.337
		c-2.508-2.103-4.178-4.844-5.544-7.713c-0.694-1.459-0.915-3.25-0.944-4.897c-0.078-4.512-0.085-9.036,0.172-13.539
		c0.133-2.335,1.207-4.455,3.246-5.887c1.301-0.914,2.609-1.817,3.92-2.719c1.924-1.323,3.774-1.066,5.811-0.06
		c3.18,1.569,4.877,4.322,6.532,7.22c0.583,1.021,0.534,2.097,0.766,3.146c1.19,5.384,1.212,10.766-0.186,16.119
		c-0.209,0.801-0.601,1.554-0.907,2.329C88.458,34.241,87.423,36.083,86.388,37.924z"/>
	<path fill-rule="evenodd" clip-rule="evenodd" fill="#FDFDFD" d="M86.388,37.924c1.035-1.841,2.07-3.683,3.106-5.524
		c0.387,0.976,0.424,1.911-0.281,2.78C88.379,36.207,87.647,37.336,86.388,37.924z"/>
	<path fill-rule="evenodd" clip-rule="evenodd" fill="#FDFDFD" d="M45.151,2.679c-0.259,0.226-0.518,0.452-0.777,0.678
		C44.633,3.131,44.892,2.905,45.151,2.679z"/>
</g>
</svg>
