<?xml version="1.0" encoding="utf-8"?>
<!-- Generator: Adobe Illustrator 16.0.3, SVG Export Plug-In . SVG Version: 6.00 Build 0)  -->
<!DOCTYPE svg PUBLIC "-//W3C//DTD SVG 1.1//EN" "http://www.w3.org/Graphics/SVG/1.1/DTD/svg11.dtd">
<svg version="1.1" id="Layer_1" xmlns="http://www.w3.org/2000/svg" xmlns:xlink="http://www.w3.org/1999/xlink" x="0px" y="0px"
	 width="20.405px" height="28.285px" viewBox="11.862 7.433 20.405 28.285" enable-background="new 11.862 7.433 20.405 28.285"
	 xml:space="preserve">
<path fill-rule="evenodd" clip-rule="evenodd" fill="#F66F5C" d="M22.06,35.719c-0.702-0.78-1.404-1.541-2.083-2.322
	c-0.355-0.409-0.672-0.851-0.999-1.283c-0.859-1.139-1.722-2.273-2.569-3.421c-0.83-1.126-1.61-2.285-2.311-3.496
	c-0.598-1.031-1.125-2.096-1.524-3.22c-0.254-0.714-0.451-1.444-0.573-2.192c-0.081-0.497-0.13-0.998-0.134-1.502
	c-0.003-0.426-0.011-0.852-0.002-1.278c0.018-0.881,0.168-1.743,0.433-2.583c0.594-1.886,1.667-3.449,3.196-4.698
	c1.043-0.852,2.214-1.466,3.503-1.854c0.522-0.157,1.055-0.269,1.596-0.343c0.651-0.089,1.305-0.11,1.959-0.074
	c0.889,0.05,1.758,0.211,2.604,0.489c1.776,0.582,3.284,1.573,4.515,2.983c0.275,0.315,0.558,0.626,0.813,0.958
	c0.762,0.986,1.29,2.085,1.565,3.303c0.091,0.402,0.15,0.809,0.185,1.22c0.039,0.472,0.042,0.943,0.012,1.415
	c-0.048,0.729-0.168,1.446-0.344,2.155c-0.28,1.134-0.691,2.223-1.18,3.282c-0.615,1.336-1.347,2.607-2.137,3.846
	c-0.913,1.432-1.902,2.811-2.923,4.167c-0.484,0.644-0.97,1.288-1.465,1.925c-0.247,0.316-0.516,0.615-0.775,0.922
	c-0.425,0.502-0.851,1.005-1.276,1.508C22.123,35.65,22.096,35.677,22.06,35.719z M16.992,17.922
	c0.021,0.228,0.032,0.467,0.064,0.704c0.131,0.961,0.51,1.817,1.125,2.567c1.061,1.292,2.73,1.974,4.394,1.765
	c0.575-0.071,1.12-0.237,1.635-0.503c1.893-0.975,2.973-3.041,2.709-5.176c-0.096-0.767-0.348-1.477-0.761-2.129
	c-1.04-1.645-2.912-2.54-4.845-2.278c-0.683,0.092-1.321,0.316-1.9,0.688C17.829,14.575,17.068,16.051,16.992,17.922z"/>
<path fill-rule="evenodd" clip-rule="evenodd" fill="#FCFCFC" d="M16.992,17.922c0.076-1.871,0.837-3.347,2.421-4.362
	c0.579-0.371,1.218-0.596,1.9-0.688c1.933-0.262,3.805,0.633,4.845,2.278c0.413,0.653,0.665,1.363,0.761,2.129
	c0.264,2.135-0.816,4.201-2.709,5.176c-0.515,0.266-1.06,0.432-1.635,0.503c-1.663,0.209-3.333-0.473-4.394-1.765
	c-0.615-0.75-0.994-1.605-1.125-2.567C17.024,18.389,17.012,18.149,16.992,17.922z"/>
</svg>
